<svg xmlns="http://www.w3.org/2000/svg" xmlns:xlink="http://www.w3.org/1999/xlink" width="435" zoomAndPan="magnify" viewBox="0 0 326.25 123.000003" height="164" preserveAspectRatio="xMidYMid meet" version="1.0"><defs><g/></defs><g fill="#33443c" fill-opacity="1"><g transform="translate(29.730833, 79.14346)"><g><path d="M 46.421875 -38.03125 L 46.421875 0 L 37.15625 0 L 37.15625 -22.8125 L 28.65625 0 L 21.1875 0 L 12.625 -22.859375 L 12.625 0 L 3.359375 0 L 3.359375 -38.03125 L 14.296875 -38.03125 L 24.96875 -11.703125 L 35.53125 -38.03125 Z M 46.421875 -38.03125 "/></g></g></g><g fill="#33443c" fill-opacity="1"><g transform="translate(79.447247, 79.14346)"><g><path d="M 12.625 -30.609375 L 12.625 -22.921875 L 25.03125 -22.921875 L 25.03125 -15.765625 L 12.625 -15.765625 L 12.625 -7.421875 L 26.65625 -7.421875 L 26.65625 0 L 3.359375 0 L 3.359375 -38.03125 L 26.65625 -38.03125 L 26.65625 -30.609375 Z M 12.625 -30.609375 "/></g></g></g><g fill="#33443c" fill-opacity="1"><g transform="translate(108.746358, 79.14346)"><g><path d="M 17.609375 -38.03125 C 21.617188 -38.03125 25.117188 -37.234375 28.109375 -35.640625 C 31.109375 -34.054688 33.429688 -31.828125 35.078125 -28.953125 C 36.722656 -26.078125 37.546875 -22.765625 37.546875 -19.015625 C 37.546875 -15.296875 36.722656 -11.988281 35.078125 -9.09375 C 33.429688 -6.207031 31.097656 -3.96875 28.078125 -2.375 C 25.066406 -0.789062 21.578125 0 17.609375 0 L 3.359375 0 L 3.359375 -38.03125 Z M 17.015625 -8.015625 C 20.515625 -8.015625 23.238281 -8.972656 25.1875 -10.890625 C 27.132812 -12.804688 28.109375 -15.515625 28.109375 -19.015625 C 28.109375 -22.515625 27.132812 -25.238281 25.1875 -27.1875 C 23.238281 -29.144531 20.515625 -30.125 17.015625 -30.125 L 12.625 -30.125 L 12.625 -8.015625 Z M 17.015625 -8.015625 "/></g></g></g><g fill="#33443c" fill-opacity="1"><g transform="translate(148.118727, 79.14346)"><g><path d="M 12.625 -38.03125 L 12.625 0 L 3.359375 0 L 3.359375 -38.03125 Z M 12.625 -38.03125 "/></g></g></g><g fill="#33443c" fill-opacity="1"><g transform="translate(164.095137, 79.14346)"><g><path d="M 32.34375 -25.78125 C 32.34375 -23.582031 31.835938 -21.570312 30.828125 -19.75 C 29.816406 -17.925781 28.257812 -16.453125 26.15625 -15.328125 C 24.0625 -14.210938 21.460938 -13.65625 18.359375 -13.65625 L 12.625 -13.65625 L 12.625 0 L 3.359375 0 L 3.359375 -38.03125 L 18.359375 -38.03125 C 21.398438 -38.03125 23.96875 -37.503906 26.0625 -36.453125 C 28.15625 -35.410156 29.722656 -33.96875 30.765625 -32.125 C 31.816406 -30.28125 32.34375 -28.164062 32.34375 -25.78125 Z M 17.65625 -21.015625 C 19.425781 -21.015625 20.742188 -21.429688 21.609375 -22.265625 C 22.484375 -23.097656 22.921875 -24.269531 22.921875 -25.78125 C 22.921875 -27.300781 22.484375 -28.472656 21.609375 -29.296875 C 20.742188 -30.128906 19.425781 -30.546875 17.65625 -30.546875 L 12.625 -30.546875 L 12.625 -21.015625 Z M 17.65625 -21.015625 "/></g></g></g><g fill="#33443c" fill-opacity="1"><g transform="translate(197.8893, 79.14346)"><g><path d="M 12.625 -7.15625 L 24.75 -7.15625 L 24.75 0 L 3.359375 0 L 3.359375 -38.03125 L 12.625 -38.03125 Z M 12.625 -7.15625 "/></g></g></g><g fill="#33443c" fill-opacity="1"><g transform="translate(223.722343, 79.14346)"><g><path d="M 12.453125 -38.03125 L 12.453125 -15.28125 C 12.453125 -13 13.007812 -11.242188 14.125 -10.015625 C 15.25 -8.796875 16.894531 -8.1875 19.0625 -8.1875 C 21.226562 -8.1875 22.890625 -8.796875 24.046875 -10.015625 C 25.203125 -11.242188 25.78125 -13 25.78125 -15.28125 L 25.78125 -38.03125 L 35.046875 -38.03125 L 35.046875 -15.328125 C 35.046875 -11.929688 34.320312 -9.0625 32.875 -6.71875 C 31.4375 -4.375 29.5 -2.601562 27.0625 -1.40625 C 24.625 -0.21875 21.90625 0.375 18.90625 0.375 C 15.90625 0.375 13.222656 -0.207031 10.859375 -1.375 C 8.492188 -2.550781 6.625 -4.320312 5.25 -6.6875 C 3.882812 -9.050781 3.203125 -11.929688 3.203125 -15.328125 L 3.203125 -38.03125 Z M 12.453125 -38.03125 "/></g></g></g><g fill="#33443c" fill-opacity="1"><g transform="translate(261.903261, 79.14346)"><g><path d="M 17.125 0.375 C 14.34375 0.375 11.847656 -0.0703125 9.640625 -0.96875 C 7.441406 -1.875 5.679688 -3.210938 4.359375 -4.984375 C 3.046875 -6.753906 2.351562 -8.882812 2.28125 -11.375 L 12.140625 -11.375 C 12.273438 -9.96875 12.757812 -8.894531 13.59375 -8.15625 C 14.425781 -7.414062 15.507812 -7.046875 16.84375 -7.046875 C 18.21875 -7.046875 19.300781 -7.359375 20.09375 -7.984375 C 20.894531 -8.617188 21.296875 -9.5 21.296875 -10.625 C 21.296875 -11.5625 20.976562 -12.335938 20.34375 -12.953125 C 19.707031 -13.566406 18.925781 -14.070312 18 -14.46875 C 17.082031 -14.863281 15.773438 -15.3125 14.078125 -15.8125 C 11.628906 -16.570312 9.628906 -17.332031 8.078125 -18.09375 C 6.523438 -18.851562 5.1875 -19.972656 4.0625 -21.453125 C 2.945312 -22.929688 2.390625 -24.863281 2.390625 -27.25 C 2.390625 -30.789062 3.671875 -33.5625 6.234375 -35.5625 C 8.796875 -37.570312 12.132812 -38.578125 16.25 -38.578125 C 20.4375 -38.578125 23.8125 -37.570312 26.375 -35.5625 C 28.945312 -33.5625 30.320312 -30.769531 30.5 -27.1875 L 20.484375 -27.1875 C 20.410156 -28.414062 19.957031 -29.382812 19.125 -30.09375 C 18.289062 -30.800781 17.222656 -31.15625 15.921875 -31.15625 C 14.804688 -31.15625 13.90625 -30.851562 13.21875 -30.25 C 12.53125 -29.65625 12.1875 -28.800781 12.1875 -27.6875 C 12.1875 -26.457031 12.765625 -25.5 13.921875 -24.8125 C 15.078125 -24.125 16.882812 -23.382812 19.34375 -22.59375 C 21.789062 -21.757812 23.78125 -20.960938 25.3125 -20.203125 C 26.851562 -19.441406 28.179688 -18.335938 29.296875 -16.890625 C 30.421875 -15.453125 30.984375 -13.597656 30.984375 -11.328125 C 30.984375 -9.160156 30.429688 -7.191406 29.328125 -5.421875 C 28.234375 -3.648438 26.632812 -2.238281 24.53125 -1.1875 C 22.4375 -0.144531 19.96875 0.375 17.125 0.375 Z M 17.125 0.375 "/></g></g></g><g fill="#33443c" fill-opacity="1"><g transform="translate(170.261886, 61.369556)"><g><path d="M 0.140625 0.015625 C 0.109375 0.015625 0.0820312 0.00390625 0.0625 -0.015625 C 0.0507812 -0.0351562 0.046875 -0.0546875 0.046875 -0.078125 C 0.046875 -0.109375 0.0507812 -0.128906 0.0625 -0.140625 C 0.0820312 -0.160156 0.109375 -0.171875 0.140625 -0.171875 C 0.171875 -0.171875 0.195312 -0.160156 0.21875 -0.140625 C 0.238281 -0.128906 0.25 -0.109375 0.25 -0.078125 C 0.25 -0.0546875 0.238281 -0.0351562 0.21875 -0.015625 C 0.195312 0.00390625 0.171875 0.015625 0.140625 0.015625 Z M 0.140625 0.015625 "/></g></g></g></svg>